Coordinates
version=1
nRows=19
nColumns=24
inDegrees=yes

Units are S.I. units (second, meters, Newtons, ...)
Angles are in degrees.

endheader
time	pelvis_tilt	pelvis_list	pelvis_rotation	pelvis_tx	pelvis_ty	pelvis_tz	hip_flexion_r	hip_adduction_r	hip_rotation_r	knee_angle_r	ankle_angle_r	subtalar_angle_r	mtp_angle_r	hip_flexion_l	hip_adduction_l	hip_rotation_l	knee_angle_l	ankle_angle_l	subtalar_angle_l	mtp_angle_l	lumbar_extension	lumbar_bending	lumbar_rotation
      5.17500000	     -2.63155848	      4.82281742	      1.54293273	      0.92326113	      1.00449459	     -0.21385608	     24.56015670	     -2.35662494	      3.07840857	     -5.74432185	     12.43624753	     -4.31918284	      0.00000000	    -14.78677440	      7.89479317	      4.32309897	     -7.56521331	     16.46073052	     -3.68290877	      0.00000000	     -8.92831362	     -5.55070746	     -9.89346027
      5.18000000	     -2.58135080	      4.76167013	      1.49659539	      0.93065405	      1.00396890	     -0.21323680	     24.57480907	     -2.18699502	      2.94504047	     -6.53413224	     12.44767372	     -3.93323869	      0.00000000	    -14.77738762	      7.76016227	      3.87499749	     -8.51057718	     16.61047517	     -2.85979018	      0.00000000	     -8.89389201	     -5.48792516	     -9.78478077
      5.18500000	     -2.53529369	      4.66957161	      1.46449183	      0.93807019	      1.00349811	     -0.21259684	     24.58515355	     -1.99428472	      2.81384137	     -7.35063336	     12.29977006	     -3.60887619	      0.00000000	    -14.73868759	      7.58403954	      3.40503128	     -9.49570264	     16.70540521	     -2.05492308	      0.00000000	     -8.85212400	     -5.39072549	     -9.68566587
      5.19000000	     -2.50026833	      4.54446929	      1.43390437	      0.94553160	      1.00308357	     -0.21197326	     24.59426018	     -1.77833775	      2.71510983	     -8.16823514	     11.99972675	     -3.32391084	      0.00000000	    -14.66383160	      7.36772408	      2.89569621	    -10.52397395	     16.76955077	     -1.20591851	      0.00000000	     -8.79410842	     -5.24218609	     -9.60411575
      5.19500000	     -2.47449498	      4.38038981	      1.41659757	      0.95299012	      1.00275848	     -0.21132021	     24.60567649	     -1.53081326	      2.61421890	     -8.97237925	     11.52412769	     -3.13576575	      0.00000000	    -14.55035841	      7.09924144	      2.36683598	    -11.59395635	     16.76743738	     -0.37216911	      0.00000000	     -8.72766372	     -5.05854659	     -9.51627561
      5.20000000	     -2.45876451	      4.17745057	      1.40392326	      0.96042492	      1.00252037	     -0.21068518	     24.62286325	     -1.25303728	      2.54268477	     -9.75456115	     10.91535193	     -3.04925826	      0.00000000	    -14.38978501	      6.78438191	      1.81739444	    -12.71994617	     16.71715381	      0.45466186	      0.00000000	     -8.65435139	     -4.82453014	     -9.42488217
      5.20500000	     -2.45523004	      3.93608891	      1.39390883	      0.96780857	      1.00235855	     -0.21001441	     24.65643825	     -0.93704505	      2.52344569	    -10.52322415	     10.22222184	     -3.10996292	      0.00000000	    -14.17255125	      6.41826664	      1.22858422	    -13.91252146	     16.62554426	      1.28312591	      0.00000000	     -8.58131033	     -4.54749886	     -9.31666582
      5.21000000	     -2.46366297	      3.65333479	      1.39617657	      0.97521183	      1.00232440	     -0.20938279	     24.69482645	     -0.58982067	      2.50201411	    -11.26586114	      9.47656050	     -3.27860724	      0.00000000	    -13.91434796	      6.00081893	      0.63972937	    -15.14221513	     16.41686508	      2.05467303	      0.00000000	     -8.48972535	     -4.22280321	     -9.22303926
      5.21500000	     -2.47927527	      3.35248816	      1.39902112	      0.98258604	      1.00238331	     -0.20876467	     24.74610900	     -0.22474595	      2.52363976	    -12.01011302	      8.75443071	     -3.56477322	      0.00000000	    -13.60913394	      5.55593745	      0.03046272	    -16.42754529	     16.11374920	      2.79773370	      0.00000000	     -8.39583697	     -3.87337715	     -9.13075651
      5.22000000	     -2.50313462	      3.06161702	      1.37906578	      0.98993658	      1.00250876	     -0.20811083	     24.80576482	      0.14777736	      2.68213453	    -12.75369212	      8.08451770	     -4.02493551	      0.00000000	    -13.25423397	      5.11664732	     -0.61410987	    -17.76977675	     15.68560971	      3.47613919	      0.00000000	     -8.29497331	     -3.54219150	     -9.00221608
      5.22500000	     -2.52831862	      2.75075830	      1.38284807	      0.99730066	      1.00271624	     -0.20756092	     24.87692374	      0.52340614	      2.76549256	    -13.53640082	      7.57128995	     -4.45315591	      0.00000000	    -12.86350903	      4.64661456	     -1.22392695	    -19.15831925	     15.14300556	      4.08651304	      0.00000000	     -8.19134797	     -3.17250846	     -8.92201447
      5.23000000	     -2.52408258	      2.44661515	      1.42099038	      1.00466656	      1.00302758	     -0.20712979	     24.92544814	      0.86727241	      2.71154822	    -14.35891808	      7.29345434	     -4.76428478	      0.00000000	    -12.45859216	      4.16767223	     -1.80515155	    -20.60968050	     14.46739345	      4.63997119	      0.00000000	     -8.12461888	     -2.79693522	     -8.86045124
      5.23500000	     -2.52726894	      2.17252292	      1.42673644	      1.01200165	      1.00333618	     -0.20664813	     24.98927701	      1.20431783	      2.75402359	    -15.21200959	      7.15176331	     -5.13825093	      0.00000000	    -11.99888555	      3.71216283	     -2.43605175	    -22.12074661	     13.66240896	      5.12644296	      0.00000000	     -8.05491997	     -2.46663055	     -8.78277932
      5.24000000	     -2.51338957	      1.92836995	      1.42808116	      1.01933226	      1.00368971	     -0.20619818	     25.03295556	      1.51243284	      2.76413439	    -16.07994900	      7.19492991	     -5.45187698	      0.00000000	    -11.51495998	      3.27842560	     -3.06263770	    -23.67883110	     12.68519023	      5.50689376	      0.00000000	     -8.00613356	     -2.16161767	     -8.70664983
      5.24500000	     -2.50653603	      1.69474340	      1.41057037	      1.02662544	      1.00403393	     -0.20577556	     25.08116843	      1.81449887	      2.76965962	    -16.95429719	      7.37458152	     -5.68579509	      0.00000000	    -10.97147265	      2.84477004	     -3.71581753	    -25.30230796	     11.57697478	      5.83694289	      0.00000000	     -7.95982205	     -1.85637832	     -8.63322546
      5.25000000	     -2.50483353	      1.48530821	      1.39371581	      1.03389679	      1.00438483	     -0.20534135	     25.11950925	      2.09260305	      2.75800279	    -17.81280958	      7.68298191	     -5.84417741	      0.00000000	    -10.37279554	      2.41642216	     -4.38128741	    -26.97633087	     10.28571216	      6.07317221	      0.00000000	     -7.90785779	     -1.58217653	     -8.56382204
      5.25500000	     -2.47018174	      1.28890609	      1.37713489	      1.04115488	      1.00478968	     -0.20491632	     25.09792759	      2.35360650	      2.66717002	    -18.62425332	      8.08008503	     -5.94985447	      0.00000000	     -9.76774743	      1.98172905	     -5.05453476	    -28.68209088	      8.79465374	      6.19898593	      0.00000000	     -7.89903679	     -1.32553069	     -8.48326965
      5.26000000	     -2.51779770	      1.13271226	      1.34725795	      1.04833712	      1.00505651	     -0.20439460	     25.14719844	      2.58401609	      2.61257268	    -19.41003830	      8.57740296	     -5.98929836	      0.00000000	     -9.02089162	      1.56228789	     -5.75703434	    -30.44269175	      7.15058394	      6.27335859	      0.00000000	     -7.80126385	     -1.13288159	     -8.41547362
      5.26500000	     -2.42181775	      0.92204676	      1.35030522	      1.05548665	      1.00558033	     -0.20392203	     24.98611718	      2.85480295	      2.47099210	    -20.07533970	      9.00702080	     -6.08783659	      0.00000000	     -8.39558283	      1.06372995	     -6.40797921	    -32.19765882	      5.28548371	      6.18173766	      0.00000000	     -7.89064326	     -0.86535525	     -8.35148597
